<svg width="16" height="16" viewBox="0 0 16 16" fill="none" xmlns="http://www.w3.org/2000/svg">
<path d="M0.332598 0.332598C0.545456 0.120005 0.833994 0.000593547 1.13483 0.000593547C1.43567 0.000593547 1.72421 0.120005 1.93707 0.332598L7.99924 6.39326L14.0629 0.332598C14.2551 0.140338 14.51 0.0234413 14.7811 0.00316375C15.0522 -0.0171138 15.3216 0.0605735 15.5403 0.222101L15.6674 0.332598C15.88 0.545456 15.9994 0.833994 15.9994 1.13483C15.9994 1.43567 15.88 1.72421 15.6674 1.93707L9.60523 7.99924L15.6674 14.0629C15.8597 14.2551 15.9766 14.51 15.9968 14.7811C16.0171 15.0522 15.9394 15.3216 15.7779 15.5403L15.6674 15.6674C15.4545 15.88 15.166 15.9994 14.8652 15.9994C14.5643 15.9994 14.2758 15.88 14.0629 15.6674L7.99924 9.60523L1.93707 15.6674C1.74485 15.8597 1.49002 15.9766 1.21891 15.9968C0.947806 16.0171 0.678422 15.9394 0.459745 15.7779L0.332598 15.6674C0.120005 15.4545 0.000593547 15.166 0.000593547 14.8652C0.000593547 14.5643 0.120005 14.2758 0.332598 14.0629L6.39326 7.99924L0.332598 1.93707C0.140338 1.74485 0.0234413 1.49002 0.00316375 1.21891C-0.0171138 0.947806 0.0605735 0.678422 0.222101 0.459745L0.332598 0.332598Z" fill="#FF8C14"/>
</svg>
