<svg width="44" height="44" viewBox="0 0 44 44" fill="none" xmlns="http://www.w3.org/2000/svg">
<path d="M30.9375 8.25H7.5625C6.65115 8.25109 5.77745 8.61361 5.13303 9.25803C4.48861 9.90245 4.12609 10.7762 4.125 11.6875V37.8125C4.125 39.7086 5.66775 41.25 7.5625 41.25H30.9375C32.8336 41.25 34.375 39.7086 34.375 37.8125V11.6875C34.375 9.79275 32.8336 8.25 30.9375 8.25ZM31.625 37.8125C31.625 38.1906 31.3156 38.5 30.9375 38.5H7.5625C7.38016 38.5 7.2053 38.4276 7.07636 38.2986C6.94743 38.1697 6.875 37.9948 6.875 37.8125V11.6875C6.875 11.5052 6.94743 11.3303 7.07636 11.2014C7.2053 11.0724 7.38016 11 7.5625 11H30.9375C31.1198 11 31.2947 11.0724 31.4236 11.2014C31.5526 11.3303 31.625 11.5052 31.625 11.6875V37.8125Z" fill="white"/>
<path d="M36.4375 2.75H13.0625C12.6978 2.75 12.3481 2.89487 12.0902 3.15273C11.8324 3.41059 11.6875 3.76033 11.6875 4.125C11.6875 4.48967 11.8324 4.83941 12.0902 5.09727C12.3481 5.35513 12.6978 5.5 13.0625 5.5H36.4375C36.6198 5.5 36.7947 5.57243 36.9236 5.70136C37.0526 5.8303 37.125 6.00516 37.125 6.1875V32.3125C37.125 32.6772 37.2699 33.0269 37.5277 33.2848C37.7856 33.5426 38.1353 33.6875 38.5 33.6875C38.8647 33.6875 39.2144 33.5426 39.4723 33.2848C39.7301 33.0269 39.875 32.6772 39.875 32.3125V6.1875C39.875 4.29275 38.3336 2.75 36.4375 2.75Z" fill="white"/>
<path d="M26.125 15.4688H12.375C12.0103 15.4688 11.6606 15.6136 11.4027 15.8715C11.1449 16.1293 11 16.4791 11 16.8438C11 17.2084 11.1449 17.5582 11.4027 17.816C11.6606 18.0739 12.0103 18.2188 12.375 18.2188H26.125C26.4897 18.2188 26.8394 18.0739 27.0973 17.816C27.3551 17.5582 27.5 17.2084 27.5 16.8438C27.5 16.4791 27.3551 16.1293 27.0973 15.8715C26.8394 15.6136 26.4897 15.4688 26.125 15.4688ZM26.125 22.3438H12.375C12.0103 22.3438 11.6606 22.4886 11.4027 22.7465C11.1449 23.0043 11 23.3541 11 23.7188C11 24.0834 11.1449 24.4332 11.4027 24.691C11.6606 24.9489 12.0103 25.0938 12.375 25.0938H26.125C26.4897 25.0938 26.8394 24.9489 27.0973 24.691C27.3551 24.4332 27.5 24.0834 27.5 23.7188C27.5 23.3541 27.3551 23.0043 27.0973 22.7465C26.8394 22.4886 26.4897 22.3438 26.125 22.3438ZM20.625 29.161H12.375C12.0103 29.161 11.6606 29.3059 11.4027 29.5637C11.1449 29.8216 11 30.1713 11 30.536C11 30.9007 11.1449 31.2504 11.4027 31.5083C11.6606 31.7661 12.0103 31.911 12.375 31.911H20.625C20.9897 31.911 21.3394 31.7661 21.5973 31.5083C21.8551 31.2504 22 30.9007 22 30.536C22 30.1713 21.8551 29.8216 21.5973 29.5637C21.3394 29.3059 20.9897 29.161 20.625 29.161Z" fill="white"/>
</svg>
