<svg width="20" height="20" viewBox="0 0 20 20" fill="none" xmlns="http://www.w3.org/2000/svg">
<path d="M16.5779 4.26617C17.9646 5.85329 18.722 7.86417 18.722 9.99165C18.722 12.3199 17.8154 14.5088 16.169 16.1551C14.548 17.7761 12.4008 18.6794 10.1127 18.7068C10.0751 18.7185 9.91173 18.7183 9.8739 18.7065C7.59494 18.6729 5.45735 17.7703 3.84212 16.1551C2.22354 14.5365 1.32055 12.3934 1.29057 10.1091C1.2822 10.0768 1.28204 9.94106 1.29016 9.90932C1.3113 7.6119 2.21525 5.45506 3.84212 3.82818C5.48845 2.18186 7.67734 1.27519 10.0056 1.27519C12.3338 1.27519 14.5227 2.18186 16.169 3.82818C16.289 3.9481 16.4045 4.07124 16.5165 4.19677C16.5264 4.20563 16.5361 4.2149 16.5452 4.22491C16.5573 4.23805 16.5679 4.25196 16.5779 4.26617ZM2.09823 9.60852H5.76036C5.78619 8.32573 5.9411 7.12289 6.19993 6.05164C4.99504 5.72572 4.2308 5.30218 3.83515 5.03784C2.8182 6.30203 2.18083 7.88365 2.09823 9.60852ZM3.82546 14.9334C4.21785 14.6687 4.98253 14.2408 6.19539 13.9127C5.94152 12.8555 5.78861 11.671 5.76094 10.4082H2.09977C2.18865 12.1146 2.8207 13.6794 3.82546 14.9334ZM17.9114 10.4082H14.2502C14.2226 11.6705 14.0697 12.8547 13.816 13.9116C15.0261 14.2376 15.7933 14.6625 16.1904 14.9276C17.1924 13.6746 17.8226 12.112 17.9114 10.4082ZM13.4504 10.4082H10.3935V13.4558C11.4133 13.4772 12.2901 13.5819 13.0356 13.7299C13.2809 12.7116 13.4232 11.584 13.4504 10.4082ZM10.3935 14.2556V17.8532C11.1131 17.6501 11.815 16.8921 12.3648 15.7044C12.5368 15.3326 12.6899 14.9302 12.8231 14.5028C12.1389 14.3706 11.3329 14.2761 10.3935 14.2556ZM9.59387 17.8462V14.2563C8.66603 14.2783 7.86772 14.3735 7.18918 14.5063C7.32213 14.9324 7.47478 15.3337 7.64639 15.7045C8.19012 16.8791 8.88265 17.6333 9.59387 17.8462ZM9.59387 13.4562V10.4082H6.56076C6.58794 11.5842 6.73029 12.712 6.97568 13.7305C7.71466 13.5833 8.58339 13.4788 9.59387 13.4562ZM6.56006 9.60852H9.59387V6.50955C8.58587 6.48622 7.71848 6.38135 6.98016 6.23409C6.72967 7.26703 6.58546 8.41321 6.56006 9.60852ZM9.59387 5.70953V2.13707C8.88263 2.35001 8.19012 3.10423 7.64641 4.27886C7.47688 4.64511 7.3259 5.04124 7.19411 5.4615C7.87067 5.59287 8.66709 5.6871 9.59387 5.70953ZM10.3935 2.13013V5.71077C11.3292 5.69074 12.1338 5.59626 12.8177 5.46357C12.6857 5.04256 12.5346 4.64573 12.3648 4.27888C11.815 3.09118 11.1131 2.33324 10.3935 2.13013ZM10.3935 6.51055V9.60852H13.4511C13.4257 8.41523 13.2819 7.27093 13.0322 6.23933C12.2878 6.38645 11.4121 6.49002 10.3935 6.51055ZM14.2508 9.60852H17.9129C17.8305 7.88707 17.1955 6.30826 16.1821 5.04534C15.7823 5.3123 15.0173 5.73477 13.8129 6.05839C14.0707 7.12795 14.225 8.32841 14.2508 9.60852ZM15.6543 15.5324C15.2963 15.3064 14.6326 14.959 13.6063 14.6829C13.2294 15.9144 12.7057 16.9291 12.0817 17.6316C13.4567 17.2576 14.6839 16.5215 15.6543 15.5324ZM7.92949 17.6316C7.30634 16.9301 6.78319 15.9174 6.40647 14.6882C5.38296 14.9664 4.71955 15.3152 4.36385 15.5396C5.33317 16.5251 6.5578 17.2585 7.92949 17.6316ZM4.37304 4.43431C4.73016 4.65962 5.3906 5.00523 6.41078 5.28072C6.78719 4.05797 7.30875 3.05051 7.92949 2.35164C6.56214 2.72361 5.34091 3.45348 4.37304 4.43431ZM12.0817 2.35164C12.7028 3.05093 13.2246 4.05919 13.601 5.28294C14.6164 5.00904 15.2802 4.66514 15.6427 4.43903C14.6741 3.45584 13.4512 2.72419 12.0817 2.35164Z" fill="url(#paint0_linear_566_582)"/>
<defs>
<linearGradient id="paint0_linear_566_582" x1="17.2567" y1="1.2752" x2="-1.67916" y2="6.58898" gradientUnits="userSpaceOnUse">
<stop stop-color="#FF6744"/>
<stop offset="1" stop-color="#FFAE32"/>
</linearGradient>
</defs>
</svg>
