<svg width="32" height="32" viewBox="0 0 32 32" fill="none" xmlns="http://www.w3.org/2000/svg">
<g clip-path="url(#clip0_564_726)">
<path d="M28.7419 9.96865C28.7419 9.66848 28.7362 9.37169 28.7229 9.07694C30.0061 8.12083 31.1194 6.92398 31.9999 5.55442C30.8041 6.09248 29.5317 6.4406 28.2285 6.58622C29.5848 5.75158 30.625 4.41673 31.1165 2.81483C29.8465 3.58502 28.4418 4.13563 26.9482 4.42254C25.7515 3.06082 24.0437 2.19349 22.1558 2.16127C18.5299 2.10132 15.5906 5.1654 15.5906 9.00418C15.5906 9.54983 15.6477 10.079 15.761 10.59C10.3009 10.2386 5.46252 7.39654 2.22605 3.11207C1.66133 4.13857 1.33734 5.33824 1.33734 6.62387C1.33734 9.05549 2.49642 11.2167 4.25754 12.492C3.1794 12.4432 2.16944 12.1167 1.2836 11.5813V11.6706C1.2836 15.0691 3.54736 17.9166 6.5511 18.5809C6.00043 18.7376 5.41962 18.8191 4.82227 18.8161C4.40723 18.814 3.99355 18.7687 3.58789 18.6809C4.42253 21.466 6.84828 23.5007 9.72011 23.5685C7.4725 25.4321 4.64119 26.5453 1.56723 26.5375C1.03722 26.5375 0.513474 26.5019 0 26.4375C2.9066 28.4313 6.35682 29.5925 10.0658 29.5925C22.1392 29.5954 28.7419 19.0865 28.7419 9.96865Z" fill="white"/>
</g>
<defs>
<clipPath id="clip0_564_726">
<rect width="32" height="32" fill="white"/>
</clipPath>
</defs>
</svg>
