<svg width="20" height="20" viewBox="0 0 20 20" fill="none" xmlns="http://www.w3.org/2000/svg">
<path d="M8.2218 5.58582H7.3499V4.77148C7.3499 4.34502 6.9805 4 6.5239 4C6.0673 4 5.6979 4.34502 5.6979 4.77148V5.58582H4.826C4.36941 5.58582 4 5.93084 4 6.3573C4 6.78375 4.36941 7.12877 4.826 7.12877H5.6979V7.94311C5.6979 8.36957 6.0673 8.71459 6.5239 8.71459C6.9805 8.71459 7.3499 8.36957 7.3499 7.94311V7.12877H8.2218C8.67839 7.12877 9.0478 6.78375 9.0478 6.3573C9.0478 5.93084 8.67839 5.58582 8.2218 5.58582ZM11.7782 7.12877H15.174C15.6306 7.12877 16 6.78375 16 6.3573C16 5.93084 15.6306 5.58582 15.174 5.58582H11.7782C11.3216 5.58582 10.9522 5.93084 10.9522 6.3573C10.9522 6.78375 11.3216 7.12877 11.7782 7.12877ZM15.174 11.2648H11.7782C11.3216 11.2648 10.9522 11.6098 10.9522 12.0362C10.9522 12.4627 11.3216 12.8077 11.7782 12.8077H15.174C15.6306 12.8077 16 12.4627 16 12.0362C16 11.6098 15.6306 11.2648 15.174 11.2648ZM15.174 13.4078H11.7782C11.3216 13.4078 10.9522 13.7528 10.9522 14.1792C10.9522 14.6057 11.3216 14.9507 11.7782 14.9507H15.174C15.6306 14.9507 16 14.6057 16 14.1792C16 13.7528 15.6306 13.4078 15.174 13.4078ZM8.32046 11.4405C7.99694 11.1383 7.4738 11.1383 7.15258 11.4405L6.53537 12.0169L5.91816 11.4405C5.59465 11.1383 5.07151 11.1383 4.75029 11.4405C4.42677 11.7426 4.42677 12.2312 4.75029 12.5313L5.3675 13.1077L4.75029 13.6842C4.42677 13.9864 4.42677 14.475 4.75029 14.775C4.9109 14.925 5.12199 15 5.33537 15C5.54876 15 5.75755 14.925 5.92046 14.775L6.53767 14.1985L7.15488 14.775C7.31549 14.925 7.52658 15 7.73996 15C7.95105 15 8.16214 14.925 8.32505 14.775C8.64857 14.4728 8.64857 13.9842 8.32505 13.6842L7.70325 13.1077L8.32046 12.5313C8.64168 12.2312 8.64168 11.7426 8.32046 11.4405Z" fill="#FFAD34"/>
<rect x="0.75" y="0.75" width="18.5" height="18.5" rx="1.25" stroke="#FFAD34" stroke-width="1.5"/>
</svg>
