<svg width="18" height="18" viewBox="0 0 18 18" fill="none" xmlns="http://www.w3.org/2000/svg">
<path d="M14.6753 3.84741L13.0617 2.133L13.0617 2.13299C12.9287 1.99168 12.8573 1.80333 12.8632 1.60938C12.8691 1.41543 12.9518 1.23177 13.0931 1.0988C13.2344 0.965827 13.4228 0.894439 13.6167 0.900339C13.8107 0.906238 13.9943 0.988939 14.1273 1.13025L14.6753 3.84741ZM14.6753 3.84741H13.1981C10.8104 3.84741 8.89998 5.88496 8.89998 8.36845V12.1579C8.89998 12.3519 8.97705 12.538 9.11425 12.6752C9.25145 12.8124 9.43753 12.8895 9.63155 12.8895C9.82558 12.8895 10.0117 12.8124 10.1489 12.6752C10.2861 12.538 10.3631 12.3519 10.3631 12.1579V8.36845C10.3631 6.66462 11.6477 5.31056 13.1981 5.31056H16.3684C17.0094 5.31056 17.3407 4.54441 16.9012 4.07761C16.9012 4.0776 16.9012 4.0776 16.9012 4.0776L14.1273 1.13026L14.6753 3.84741ZM15.8511 8.90377C15.7139 9.04097 15.6368 9.22705 15.6368 9.42108V14.6842C15.6368 14.9369 15.5364 15.1792 15.3578 15.3578C15.1791 15.5365 14.9368 15.6368 14.6842 15.6368H3.31578C3.06313 15.6368 2.82083 15.5365 2.64217 15.3578C2.46352 15.1792 2.36315 14.9369 2.36315 14.6842V3.94741C2.36315 3.69476 2.46352 3.45245 2.64217 3.2738C2.82083 3.09515 3.06313 2.99478 3.31578 2.99478H8.78945C8.98348 2.99478 9.16956 2.9177 9.30676 2.78051C9.44395 2.64331 9.52103 2.45723 9.52103 2.2632C9.52103 2.06918 9.44395 1.8831 9.30676 1.7459C9.16956 1.6087 8.98348 1.53163 8.78945 1.53163H3.31578C1.98161 1.53163 0.9 2.61324 0.9 3.94741V14.6842C0.9 16.0184 1.98161 17.1 3.31578 17.1H14.6842C16.0183 17.1 17.1 16.0184 17.1 14.6842V9.42108C17.1 9.22705 17.0229 9.04097 16.8857 8.90377C16.7485 8.76657 16.5624 8.6895 16.3684 8.6895C16.1743 8.6895 15.9883 8.76657 15.8511 8.90377Z" fill="#FFAD34" stroke="#FFAD34" stroke-width="0.2"/>
</svg>
