<svg width="24" height="24" viewBox="0 0 24 24" fill="none" xmlns="http://www.w3.org/2000/svg">
<g clip-path="url(#clip0_500_593)">
<path d="M17.6677 20.4028C17.6677 21.2075 17.0353 21.8598 16.256 21.8612H3.55009C2.76939 21.8612 2.13833 21.2075 2.13833 20.4028V7.28752C2.13833 6.48282 2.76939 5.83058 3.55009 5.83058H16.256C17.0353 5.83058 17.6677 6.48282 17.6677 7.28752V20.4028ZM16.256 4.37364H3.55009C1.99009 4.37364 0.726562 5.67811 0.726562 7.28752V20.4028C0.726562 22.0122 1.99009 23.3181 3.55009 23.3181H16.256C17.8146 23.3181 19.0795 22.0136 19.0795 20.4028V7.28752C19.0795 5.67811 17.8146 4.37364 16.256 4.37364Z" fill="white"/>
<path d="M4.95312 18.9388H10.6002V17.4805H4.95312V18.9388ZM4.95312 16.0235H14.8355V14.5666H4.95312V16.0235ZM4.95312 13.1097H14.8355V11.6513H4.95312V13.1097ZM4.95312 10.1944H14.8355V8.73883H4.95312V10.1929V10.1944Z" fill="white"/>
<path d="M20.5099 0.00424194H7.804C6.244 0.00424194 4.98047 1.30871 4.98047 2.91812H6.39223C6.39223 2.11342 7.0247 1.46118 7.804 1.46118H20.5099C21.2892 1.46118 21.9216 2.11342 21.9216 2.91812V16.0334C21.9216 16.8381 21.2892 17.4904 20.5099 17.4918V18.9487C22.0699 18.9487 23.3334 17.6442 23.3334 16.0334V2.91812C23.3334 1.30871 22.0699 0.00424194 20.5099 0.00424194Z" fill="white"/>
</g>
<defs>
<clipPath id="clip0_500_593">
<rect width="24" height="24" fill="white"/>
</clipPath>
</defs>
</svg>
