<svg width="50" height="50" viewBox="0 0 50 50" fill="none" xmlns="http://www.w3.org/2000/svg">
<path d="M36.8058 42.5059C36.8058 44.1824 35.4882 45.5412 33.8647 45.5442H7.39407C5.7676 45.5442 4.4529 44.1824 4.4529 42.5059V15.1824C4.4529 13.5059 5.7676 12.1471 7.39407 12.1471H33.8647C35.4882 12.1471 36.8058 13.5059 36.8058 15.1824V42.5059ZM33.8647 9.11182H7.39407C4.14407 9.11182 1.51172 11.8295 1.51172 15.1824V42.5059C1.51172 45.8589 4.14407 48.5795 7.39407 48.5795H33.8647C37.1117 48.5795 39.747 45.8618 39.747 42.5059V15.1824C39.747 11.8295 37.1117 9.11182 33.8647 9.11182Z" fill="#FF6B43"/>
<path d="M10.3203 39.4559H22.085V36.4177H10.3203V39.4559ZM10.3203 33.3824H30.9085V30.3471H10.3203V33.3824ZM10.3203 27.3118H30.9085V24.2736H10.3203V27.3118ZM10.3203 21.2383H30.9085V18.2059H10.3203V21.2353V21.2383Z" fill="#FF6B43"/>
<path d="M42.7299 0.00878906H16.2593C13.0093 0.00878906 10.377 2.72644 10.377 6.07938H13.3181C13.3181 4.40291 14.6358 3.04408 16.2593 3.04408H42.7299C44.3534 3.04408 45.6711 4.40291 45.6711 6.07938V33.4029C45.6711 35.0794 44.3534 36.4382 42.7299 36.4411V39.4764C45.9799 39.4764 48.6122 36.7588 48.6122 33.4029V6.07938C48.6122 2.72644 45.9799 0.00878906 42.7299 0.00878906Z" fill="#FF6B43"/>
</svg>
