<svg width="33" height="32" viewBox="0 0 33 32" fill="none" xmlns="http://www.w3.org/2000/svg">
<path d="M16.8809 0C8.05524 0 0.880859 7.17438 0.880859 16C0.880859 24.8256 8.05524 32 16.8809 32C25.7065 32 32.8809 24.8256 32.8809 16C32.8809 7.19336 25.7065 0 16.8809 0ZM16.8809 29.7414C9.30791 29.7414 3.15844 23.5919 3.15844 16.019C3.15844 8.44603 9.30791 2.29656 16.8809 2.29656C24.4538 2.29656 30.6033 8.44603 30.6033 16.019C30.6033 23.5919 24.4538 29.7414 16.8809 29.7414Z" fill="white"/>
<path d="M17.6781 9.64149C17.2416 9.20495 16.5204 9.20495 16.0648 9.64149L10.5037 15.2026C10.295 15.4114 10.1621 15.715 10.1621 15.9997C10.1621 16.3034 10.276 16.5881 10.5037 16.7969L16.0648 22.358C16.2736 22.5668 16.5773 22.6996 16.862 22.6996C17.1467 22.6996 17.4504 22.5857 17.6591 22.358L23.2202 16.7969C23.429 16.5881 23.5619 16.2844 23.5619 15.9997C23.5619 15.6961 23.448 15.4114 23.2202 15.2026L17.6781 9.64149ZM16.881 19.9665L12.9142 16.0187L16.862 12.0709L20.8098 16.0187L16.881 19.9665Z" fill="white"/>
</svg>
