<svg width="14" height="14" viewBox="0 0 14 14" fill="none" xmlns="http://www.w3.org/2000/svg">
<path d="M7 0C3.13879 0 0 3.13879 0 7C0 10.8612 3.13879 14 7 14C10.8612 14 14 10.8612 14 7C14 3.14709 10.8612 0 7 0ZM7 13.0119C3.68683 13.0119 0.996441 10.3215 0.996441 7.0083C0.996441 3.69514 3.68683 1.00475 7 1.00475C10.3132 1.00475 13.0036 3.69514 13.0036 7.0083C13.0036 10.3215 10.3132 13.0119 7 13.0119Z" fill="white"/>
<path d="M7.3488 4.21831C7.15782 4.02733 6.84228 4.02733 6.64299 4.21831L4.21001 6.65129C4.11867 6.74263 4.06055 6.87549 4.06055 7.00004C4.06055 7.1329 4.11037 7.25746 4.21001 7.3488L6.64299 9.78177C6.73433 9.87312 6.86719 9.93124 6.99174 9.93124C7.1163 9.93124 7.24916 9.88142 7.3405 9.78177L9.77348 7.3488C9.86482 7.25746 9.92294 7.1246 9.92294 7.00004C9.92294 6.86718 9.87312 6.74263 9.77348 6.65129L7.3488 4.21831ZM7.00005 8.73551L5.26458 7.00835L6.99174 5.28118L8.71891 7.00835L7.00005 8.73551Z" fill="white"/>
</svg>
