<svg width="33" height="30" viewBox="0 0 33 30" fill="none" xmlns="http://www.w3.org/2000/svg">
<path d="M27.7349 0H4.99559C2.44233 0 0.365234 2.12666 0.365234 4.74085V24.2988C0.365234 26.913 2.44233 29.0397 4.99559 29.0397H27.7349C30.2881 29.0397 32.3652 26.913 32.3652 24.2988V4.74085C32.3652 2.12666 30.2881 0 27.7349 0ZM2.68041 11.8707H16.0471C17.6338 11.8707 18.9249 13.1926 18.9249 14.8171C18.9249 16.4417 17.6338 17.7636 16.0471 17.7636H2.68041V11.8707ZM30.0501 24.2984C30.0501 25.6053 29.0113 26.6689 27.7349 26.6689H4.99559C3.71915 26.6689 2.68041 25.6053 2.68041 24.2984V20.134H16.0471C18.9106 20.134 21.24 17.7489 21.24 14.8171C21.24 11.8853 18.9106 9.50026 16.0471 9.50026H2.68041V4.74085C2.68041 3.43395 3.71915 2.37042 4.99559 2.37042H27.7349C29.0113 2.37042 30.0501 3.43395 30.0501 4.74085V24.2984Z" fill="white"/>
</svg>
